<svg width="600" height="600" viewBox="0 0 600 600" fill="none" xmlns="http://www.w3.org/2000/svg">
<path d="M531.892 328.11C547.416 328.11 560 315.524 560 300C560 284.475 547.416 271.89 531.892 271.89V328.11ZM48.2327 280.123C37.2558 291.101 37.2558 308.899 48.2327 319.877L227.111 498.767C238.089 509.744 255.885 509.744 266.863 498.767C277.839 487.788 277.839 469.991 266.863 459.014L107.859 300L266.863 140.987C277.839 130.009 277.839 112.211 266.863 101.233C255.885 90.2556 238.089 90.2556 227.111 101.233L48.2327 280.123ZM531.892 271.89H68.1081V328.11H531.892V271.89Z" fill="white"/>
</svg>
