<svg width="600" height="600" viewBox="0 0 600 600" fill="none" xmlns="http://www.w3.org/2000/svg">
<g clip-path="url(#clip0_6_674)">
<path d="M284.412 83.9999C291.34 72 308.66 71.9999 315.588 84L543.353 478.5C550.281 490.5 541.621 505.5 527.765 505.5H72.2353C58.3789 505.5 49.7187 490.5 56.6469 478.5L284.412 83.9999Z" fill="#FCD100" stroke="#EA9500" stroke-width="24"/>
<mask id="path-2-outside-1_6_674" maskUnits="userSpaceOnUse" x="268.499" y="240.793" width="53" height="195" fill="black">
<rect fill="white" x="268.499" y="240.793" width="53" height="195"/>
<path d="M314.78 245.975L311.317 373.283H278.824L275.273 245.975H314.78ZM295.071 430.101C289.211 430.101 284.181 428.03 279.978 423.887C275.776 419.685 273.705 414.654 273.764 408.795C273.705 402.994 275.776 398.023 279.978 393.88C284.181 389.737 289.211 387.665 295.071 387.665C300.693 387.665 305.635 389.737 309.897 393.88C314.158 398.023 316.318 402.994 316.378 408.795C316.318 412.701 315.283 416.282 313.27 419.537C311.317 422.733 308.743 425.307 305.547 427.261C302.351 429.154 298.859 430.101 295.071 430.101Z"/>
</mask>
<path d="M314.78 245.975L311.317 373.283H278.824L275.273 245.975H314.78ZM295.071 430.101C289.211 430.101 284.181 428.03 279.978 423.887C275.776 419.685 273.705 414.654 273.764 408.795C273.705 402.994 275.776 398.023 279.978 393.88C284.181 389.737 289.211 387.665 295.071 387.665C300.693 387.665 305.635 389.737 309.897 393.88C314.158 398.023 316.318 402.994 316.378 408.795C316.318 412.701 315.283 416.282 313.27 419.537C311.317 422.733 308.743 425.307 305.547 427.261C302.351 429.154 298.859 430.101 295.071 430.101Z" fill="white"/>
<path d="M314.78 245.975L319.778 246.111L319.917 240.975H314.78V245.975ZM311.317 373.283V378.283H316.183L316.315 373.419L311.317 373.283ZM278.824 373.283L273.826 373.423L273.962 378.283H278.824V373.283ZM275.273 245.975V240.975H270.132L270.275 246.114L275.273 245.975ZM279.978 423.887L276.443 427.423L276.455 427.435L276.468 427.447L279.978 423.887ZM273.764 408.795L278.764 408.845L278.764 408.794L278.764 408.744L273.764 408.795ZM279.978 393.88L283.489 397.44H283.489L279.978 393.88ZM309.897 393.88L306.411 397.465L309.897 393.88ZM316.378 408.795L321.377 408.87L321.378 408.807L321.377 408.744L316.378 408.795ZM313.27 419.537L309.017 416.908L309.011 416.919L309.004 416.93L313.27 419.537ZM305.547 427.261L308.096 431.562L308.125 431.545L308.154 431.527L305.547 427.261ZM309.781 245.839L306.319 373.147L316.315 373.419L319.778 246.111L309.781 245.839ZM311.317 368.283H278.824V378.283H311.317V368.283ZM283.822 373.144L280.271 245.836L270.275 246.114L273.826 373.423L283.822 373.144ZM275.273 250.975H314.78V240.975H275.273V250.975ZM295.071 425.101C290.536 425.101 286.763 423.554 283.489 420.326L276.468 427.447C281.598 432.505 287.887 435.101 295.071 435.101V425.101ZM283.514 420.351C280.247 417.084 278.718 413.34 278.764 408.845L268.764 408.744C268.691 415.968 271.306 422.285 276.443 427.423L283.514 420.351ZM278.764 408.744C278.719 404.326 280.233 400.65 283.489 397.44L276.468 390.319C271.319 395.396 268.691 401.663 268.764 408.846L278.764 408.744ZM283.489 397.44C286.763 394.212 290.536 392.665 295.071 392.665V382.665C287.887 382.665 281.598 385.261 276.468 390.319L283.489 397.44ZM295.071 392.665C299.312 392.665 303.024 394.172 306.411 397.465L313.382 390.295C308.246 385.302 302.075 382.665 295.071 382.665V392.665ZM306.411 397.465C309.744 400.704 311.333 404.415 311.378 408.846L321.377 408.744C321.304 401.574 318.573 395.341 313.382 390.295L306.411 397.465ZM311.378 408.719C311.332 411.742 310.545 414.437 309.017 416.908L317.523 422.166C320.021 418.126 321.304 413.66 321.377 408.87L311.378 408.719ZM309.004 416.93C307.464 419.449 305.459 421.455 302.939 422.994L308.154 431.527C312.027 429.16 315.17 426.017 317.537 422.144L309.004 416.93ZM302.998 422.959C300.589 424.386 297.98 425.101 295.071 425.101V435.101C299.737 435.101 304.112 433.923 308.096 431.562L302.998 422.959Z" fill="#EA9500" mask="url(#path-2-outside-1_6_674)"/>
</g>
<defs>
<clipPath id="clip0_6_674">
<rect width="600" height="600" fill="white"/>
</clipPath>
</defs>
</svg>
