<svg width="600" height="600" viewBox="0 0 600 600" fill="none" xmlns="http://www.w3.org/2000/svg">
<path d="M228.41 204.819C224.193 206.22 219.592 203.94 218.668 199.593C215.982 186.965 216.706 173.796 220.838 161.463C225.827 146.576 235.511 133.711 248.436 124.802C261.36 115.893 276.826 111.422 292.508 112.06C308.191 112.698 323.243 118.412 335.401 128.342C347.559 138.272 356.167 151.881 359.929 167.124C363.691 182.367 362.406 198.421 356.266 212.87C350.125 227.32 339.462 239.385 325.878 247.253C314.626 253.77 301.872 257.114 288.967 257.008C284.524 256.971 281.371 252.918 281.899 248.505C282.427 244.092 286.443 241.003 290.885 240.899C300.313 240.677 309.581 238.092 317.817 233.322C328.384 227.202 336.68 217.815 341.458 206.573C346.234 195.331 347.234 182.842 344.307 170.983C341.38 159.124 334.684 148.535 325.224 140.81C315.765 133.085 304.055 128.639 291.855 128.143C279.653 127.646 267.62 131.125 257.566 138.056C247.51 144.987 239.976 154.996 236.095 166.578C233.071 175.604 232.393 185.205 234.062 194.49C234.849 198.864 232.627 203.418 228.41 204.819Z" fill="white"/>
<path d="M360.122 394.181C355.906 392.781 351.304 395.06 350.38 399.408C347.694 412.036 348.418 425.205 352.55 437.537C357.539 452.424 367.223 465.289 380.148 474.199C393.072 483.107 408.538 487.578 424.22 486.94C439.904 486.302 454.955 480.588 467.113 470.658C479.271 460.729 487.879 447.119 491.641 431.876C495.403 416.633 494.118 400.579 487.978 386.13C481.837 371.68 471.174 359.615 457.59 351.748C446.338 345.231 433.584 341.886 420.679 341.992C416.236 342.029 413.083 346.082 413.611 350.495C414.139 354.909 418.155 357.997 422.597 358.101C432.025 358.323 441.293 360.908 449.529 365.678C460.096 371.799 468.392 381.185 473.17 392.427C477.947 403.669 478.946 416.158 476.019 428.017C473.092 439.876 466.396 450.464 456.936 458.191C447.477 465.916 435.767 470.36 423.567 470.857C411.365 471.354 399.332 467.875 389.278 460.944C379.222 454.013 371.688 444.004 367.807 432.422C364.783 423.396 364.105 413.796 365.774 404.51C366.561 400.136 364.339 395.582 360.122 394.181Z" fill="white"/>
<path d="M426.368 261.732C422.151 263.133 417.55 260.852 416.626 256.505C413.94 243.878 414.664 230.709 418.796 218.376C423.785 203.488 433.468 190.624 446.393 181.715C459.317 172.806 474.784 168.334 490.466 168.973C506.149 169.611 521.201 175.325 533.359 185.254C545.517 195.185 554.124 208.794 557.886 224.037C561.649 239.28 560.364 255.333 554.223 269.783C548.083 284.233 537.42 296.298 523.836 304.165C512.584 310.682 499.83 314.027 486.925 313.921C482.482 313.884 479.328 309.831 479.857 305.417C480.385 301.005 484.4 297.916 488.843 297.811C498.271 297.59 507.539 295.005 515.774 290.235C526.342 284.115 534.638 274.727 539.416 263.486C544.192 252.244 545.192 239.755 542.265 227.895C539.338 216.036 532.641 205.448 523.182 197.723C513.723 189.998 502.013 185.552 489.812 185.056C477.611 184.559 465.578 188.038 455.523 194.969C445.468 201.9 437.934 211.909 434.053 223.491C431.029 232.517 430.351 242.118 432.02 251.403C432.807 255.777 430.585 260.331 426.368 261.732Z" fill="white"/>
<path d="M91.6327 241.057C87.2208 241.057 83.6442 244.635 83.6442 249.048C83.6442 253.462 87.2208 257.039 91.6327 257.039V241.057ZM91.6327 257.039H294.267V241.057H91.6327V257.039Z" fill="white"/>
<path d="M164.113 341.961C159.701 341.961 156.125 345.538 156.125 349.952C156.125 354.365 159.701 357.943 164.113 357.943V341.961ZM164.113 357.943H425.979V341.961H164.113V357.943Z" fill="white"/>
<path d="M47.9885 297.97C43.5766 297.97 40 301.547 40 305.961C40 310.374 43.5766 313.952 47.9885 313.952V297.97ZM47.9885 313.952H492.224V297.97H47.9885V313.952Z" fill="white"/>
</svg>
